inDegrees=yes
name=IK-live
DataType=double
version=3
OpenSimVersion=4.1
endheader
time	pelvis_tilt	pelvis_list	pelvis_rotation	pelvis_tx	pelvis_ty	pelvis_tz	hip_flexion_r	hip_adduction_r	hip_rotation_r	knee_angle_r	ankle_angle_r	subtalar_angle_r	mtp_angle_r	hip_flexion_l	hip_adduction_l	hip_rotation_l	knee_angle_l	ankle_angle_l	subtalar_angle_l	mtp_angle_l	lumbar_extension	lumbar_bending	lumbar_rotation	neck_flex	neck_latbend	neck_rot	arm_flex_r	arm_add_r	arm_rot_r	elbow_flex_r	pro_sup_r	wrist_flex_r	wrist_dev_r	arm_flex_l	arm_add_l	arm_rot_l	elbow_flex_l	pro_sup_l	wrist_flex_l	wrist_dev_l
8.3137387	0.7432998984053717	9.696799149727253	-252.416536097643	0.2341366603171506	0.04326292228651554	-1.326684523481465	-22.57117169827992	-1.591976316804377	-3.241458145969817	5.899560354604904	2.451982624139334	1.987972377786656	0	-24.74788768789517	-3.395140484746916	-11.58000132048591	9.793848132074926	-0.4439473045988533	4.250290820099795	0	-21.37711699760957	1.659277491615732	3.206407148933037	0	0	0	0.7774328337355588	-15.17651466023341	33.31499192903651	6.959044092968275	24.86484904083584	0	0.008154398043375964	5.868658916160063	-13.22967036992017	43.90424254043049	6.772350638379161	33.47553237644823	0	0.008154398043375964
8.474729	17.24561326642059	10.29738072136772	-255.3151968152511	0.2341366603171506	0.04326292228651554	-1.326684523481465	-22.57117169827992	-1.591976316804377	-3.241458145969817	5.899560354604904	2.451982624139334	1.987972377786656	0	-24.74788768789517	-3.395140484746916	-11.58000132048591	9.793848132074926	-0.4439473045988533	4.250290820099795	0	-21.37711699760957	1.659277491615732	3.206407148933037	0	0	0	0.7763012850154593	-15.17651960953143	33.31645941413178	6.939157360530733	24.86108500605535	0	0.006439901909656822	5.867628807087052	-13.22962071779996	43.90642837274928	6.751913297850526	33.47368052342787	0	0.006439901909656822
8.6266389	38.0625716881144	30.13326566860973	-257.3494296053478	0.2341366603171506	0.04326292228651554	-1.326684523481465	-22.57117169827992	-1.591976316804377	-3.241458145969817	5.899560354604904	2.451982624139334	1.987972377786656	0	-24.74788768789517	-3.395140484746916	-11.58000132048591	9.793848132074926	-0.4439473045988533	4.250290820099795	0	-21.37711699760957	1.659277491615732	3.206407148933037	0	0	0	0.7870753417305918	-15.17647245533388	33.30246644961184	7.128117934625579	24.89708354584191	0	0.02285949403405719	5.877436362094317	-13.23009377628716	43.88557815049826	6.945980054863611	33.49138247938451	0	0.02285949403405719
8.7864515	49.56598091875509	47.0139382992687	-262.8533786125253	0.2341366603171506	0.04326292228651554	-1.326684523481465	-22.57117169827992	-1.591976316804377	-3.241458145969817	5.899560354604904	2.451982624139334	1.987972377786656	0	-24.74788768789517	-3.395140484746916	-11.58000132048591	9.793848132074926	-0.4439473045988533	4.250290820099795	0	-21.37711699760957	1.659277491615732	3.206407148933037	0	0	0	0.7893070644145898	-15.17646265403315	33.29954126752933	7.173408801556919	24.90481259691104	0	0.02642478899825305	5.87946701334084	-13.23019210495987	43.88120623627435	6.992725281504451	33.49515380879829	0	0.02642478899825305
8.939364400000001	55.24425546077204	51.17658933518703	-266.313086529061	0.2341366603171506	0.04326292228651554	-1.326684523481465	-22.57117169827992	-1.591976316804377	-3.241458145969817	5.899560354604904	2.451982624139334	1.987972377786656	0	-24.74788768789517	-3.395140484746916	-11.58000132048591	9.793848132074926	-0.4439473045988533	4.250290820099795	0	-21.37711699760957	1.659277491615732	3.206407148933037	0	0	0	0.7922826708506923	-15.1764495219872	33.2955966142074	7.234289903019999	24.91547507452343	0	0.03139167539241444	5.882173076127816	-13.23032384904992	43.87529376110062	7.055358417374317	33.5003351616663	0	0.03139167539241444
9.1003548	52.74158434126871	57.73945439796368	-265.7456172137104	0.2341366603171506	0.04326292228651554	-1.326684523481465	-22.57117169827992	-1.591976316804377	-3.241458145969817	5.899560354604904	2.451982624139334	1.987972377786656	0	-24.74788768789517	-3.395140484746916	-11.58000132048591	9.793848132074926	-0.4439473045988533	4.250290820099795	0	-21.37711699760957	1.659277491615732	3.206407148933037	0	0	0	0.79017180670735	-15.17645882260366	33.29838506995688	7.190678153812109	24.90797453713681	0	0.02790406874493958	5.880253058450181	-13.23023054300859	43.87947016657977	7.010430281759762	33.49668845654936	0	0.02790406874493958
9.2513348	41.4635596827235	57.9765439023566	-260.2244397381693	0.2341366603171506	0.04326292228651554	-1.326684523481465	-22.57117169827992	-1.591976316804377	-3.241458145969817	5.899560354604904	2.451982624139334	1.987972377786656	0	-24.74788768789517	-3.395140484746916	-11.58000132048591	9.793848132074926	-0.4439473045988533	4.250290820099795	0	-21.37711699760957	1.659277491615732	3.206407148933037	0	0	0	0.7967351619084937	-15.17643010386314	33.2898701202565	7.296187590502283	24.92974660381648	0	0.03781278275811525	5.886228005229629	-13.23051865382545	43.86679060680749	7.118278290207671	33.50742419342698	0	0.03781278275811525
9.4120867	25.55159352758091	11.15105940602615	-252.8847211413799	0.2341366603171506	0.04326292228651554	-1.326684523481465	-22.57117169827992	-1.591976316804377	-3.241458145969817	5.899560354604904	2.451982624139334	1.987972377786656	0	-24.74788768789517	-3.395140484746916	-11.58000132048591	9.793848132074926	-0.4439473045988533	4.250290820099795	0	-21.37711699760957	1.659277491615732	3.206407148933037	0	0	0	0.7819461164192559	-15.17649491020969	33.30913240845431	7.038236344381267	24.87990931676167	0	0.01502043101612011	5.872767385940355	-13.2298685052996	43.89551244626956	6.853698041058057	33.4829393752139	0	0.01502043101612011
9.563979700000001	15.37481415391452	0.4800831974787461	-252.5441327052984	0.2341366603171506	0.04326292228651554	-1.326684523481465	-22.57117169827992	-1.591976316804377	-3.241458145969817	5.899560354604904	2.451982624139334	1.987972377786656	0	-24.74788768789517	-3.395140484746916	-11.58000132048591	9.793848132074926	-0.4439473045988533	4.250290820099795	0	-21.37711699760957	1.659277491615732	3.206407148933037	0	0	0	0.7774573177505366	-15.17651455135949	33.31495914394598	6.959394221827646	24.86493357808423	0	0.008192483222765168	5.868681152718674	-13.22967146217807	43.90419348135815	6.772704758147638	33.47557419869147	0	0.008192483222765168
